:FULLY-SPECIFIED
:FORCE-ALL-JOINTS-BE-3DOF
:DEGREES
747
root 4.13701 16.9349 14.5554 -163.22 0.73246 -170.191
lfemur -29.2927 3.83518 -13.6368
ltibia 33.1288 -0 0
lfoot -13.0239 -0.69418 -2.6932
ltoes 14.0997 -0 0
rfemur -24.2399 -34.1032 7.08129
rtibia 109.13 -0 0
rfoot 24.3372 3.28668 0.605117
rtoes 26.338 -0 0
lowerback 1.40128 7.24222 -1.14525
upperback -1.72392 9.64487 -2.56797
thorax -2.28319 4.83444 -2.36533
lowerneck -6.73344 -8.51923 -1.57426
upperneck -1.81266 -11.2705 4.69577
head 0.942429 -5.56189 1.38203
lclavicle 4.74101e-14 -5.36719e-14 0
lhumerus -57.9407 -11.0794 72.9355
lradius 55.9348 -0 0
lwrist 15.9636 0 0
lhand -25.9864 -6.408 0.063873
lfingers 7.12502 -0 0
lthumb 0.558805 23.5388 0.0612469
rclavicle 4.74101e-14 -5.36719e-14 0
rhumerus 24.4879 40.8158 -64.6529
rradius 87.7142 -0 0
rwrist -0.294772 0 0
rhand -23.6289 -23.5776 0.374644
rfingers 7.12502 -0 0
rthumb 2.8345 -53.4464 0.366168
748
root 4.11568 16.8263 14.659 -163.188 3.6999 -170.229
lfemur -30.6658 5.94454 -14.9053
ltibia 35.9175 -0 0
lfoot -15.6115 0.935516 -2.63459
ltoes 13.7071 -0 0
rfemur -24.155 -34.2481 8.91579
rtibia 106.761 -0 0
rfoot 23.2183 2.33602 0.632681
rtoes 26.1258 -0 0
lowerback 1.63658 7.11469 -1.48506
upperback -1.58358 9.46763 -2.70491
thorax -2.30155 4.75384 -2.33417
lowerneck -6.56259 -8.60698 -1.61707
upperneck -1.80401 -11.3737 4.8983
head 0.935911 -5.60432 1.45483
lclavicle 4.74101e-14 -5.36719e-14 0
lhumerus -57.5076 -10.5781 75.4339
lradius 56.6637 -0 0
lwrist 15.4849 0 0
lhand -26.4384 -6.6441 0.0617082
lfingers 7.12502 -0 0
lthumb 0.122221 23.3042 0.0591658
rclavicle 4.74101e-14 -5.36719e-14 0
rhumerus 21.6257 43.5393 -67.9486
rradius 87.4983 -0 0
rwrist 0.531897 0 0
rhand -22.8898 -22.7923 0.364632
rfingers 7.12502 -0 0
rthumb 3.5483 -52.6516 0.356394
749
root 4.08975 16.7223 14.764 -163.172 6.49465 -170.283
lfemur -32.093 7.98818 -16.1872
ltibia 38.7751 -0 0
lfoot -18.1588 2.54509 -2.50205
ltoes 13.3455 -0 0
rfemur -24.0894 -34.3277 10.7388
rtibia 104.363 -0 0
rfoot 22.0919 1.33491 0.640656
rtoes 25.9467 -0 0
lowerback 1.88227 6.97265 -1.82654
upperback -1.44163 9.26909 -2.84035
thorax -2.32476 4.66239 -2.29945
lowerneck -6.39163 -8.69057 -1.66195
upperneck -1.79292 -11.4717 5.10154
head 0.930187 -5.6441 1.52829
lclavicle 4.74101e-14 -5.36719e-14 0
lhumerus -56.9668 -10.1667 77.8388
lradius 57.3709 -0 0
lwrist 15.0186 0 0
lhand -26.8836 -6.8744 0.0578258
lfingers 7.12502 -0 0
lthumb -0.307724 23.0755 0.0554379
rclavicle 4.74101e-14 -5.36719e-14 0
rhumerus 18.3744 46.0242 -71.5152
rradius 87.3052 -0 0
rwrist 1.34061 0 0
rhand -22.1556 -22.0267 0.344579
rfingers 7.12502 -0 0
rthumb 4.2573 -51.8768 0.336805
750
root 4.05746 16.6216 14.8748 -163.173 9.08287 -170.354
lfemur -33.5579 9.94298 -17.4683
ltibia 41.6722 -0 0
lfoot -20.6353 4.11381 -2.30114
ltoes 13.0195 -0 0
rfemur -24.0403 -34.3389 12.5283
rtibia 101.962 -0 0
rfoot 20.9704 0.293448 0.627573
rtoes 25.8033 -0 0
lowerback 2.13602 6.81736 -2.16614
upperback -1.29953 9.0509 -2.97287
thorax -2.35271 4.56086 -2.26145
lowerneck -6.22241 -8.76901 -1.70841
upperneck -1.77942 -11.5632 5.30331
head 0.925343 -5.68075 1.60164
lclavicle 4.74101e-14 -5.36719e-14 0
lhumerus -56.329 -9.85557 80.1233
lradius 58.0486 -0 0
lwrist 14.5701 0 0
lhand -27.317 -7.09629 0.052409
lfingers 7.12502 -0 0
lthumb -0.726249 22.8551 0.0502391
rclavicle 4.74101e-14 -5.36719e-14 0
rhumerus 14.7649 48.2219 -75.3206
rradius 87.1376 -0 0
rwrist 2.12228 0 0
rhand -21.4344 -21.2897 0.31534
rfingers 7.12502 -0 0
rthumb 4.95366 -51.1308 0.308238
751
root 4.01705 16.5227 14.9956 -163.193 11.4307 -170.444
lfemur -35.0417 11.7874 -18.7315
ltibia 44.5796 -0 0
lfoot -23.0115 5.62178 -2.04055
ltoes 12.7337 -0 0
rfemur -24.0048 -34.2789 14.2622
rtibia 99.5833 -0 0
rfoot 19.8661 -0.77823 0.592793
rtoes 25.6982 -0 0
lowerback 2.39546 6.65003 -2.5003
upperback -1.15874 8.81474 -3.10102
thorax -2.38527 4.45001 -2.22045
lowerneck -6.05679 -8.84131 -1.75599
upperneck -1.7635 -11.6472 5.50143
head 0.921466 -5.71378 1.67409
lclavicle 4.74101e-14 -5.36719e-14 0
lhumerus -55.6053 -9.65346 82.2598
lradius 58.6885 -0 0
lwrist 14.1446 0 0
lhand -27.7335 -7.30716 0.0457143
lfingers 7.12502 -0 0
lthumb -1.12858 22.6457 0.0438159
rclavicle 4.74101e-14 -5.36719e-14 0
rhumerus 10.8583 50.0917 -79.3011
rradius 86.9981 -0 0
rwrist 2.86779 0 0
rhand -20.7345 -20.59 0.278185
rfingers 7.12502 -0 0
rthumb 5.62955 -50.4226 0.271931
